HIERARCHY
ROOT Hips
{
	OFFSET 0.000000 71.427986 0.000000
	CHANNELS 6 Xposition Yposition Zposition Xrotation Yrotation Zrotation
	JOINT Pelvis
	{
		OFFSET 0.000000 0.000000 0.000000
		CHANNELS 3 Xrotation Yrotation Zrotation
		JOINT LeftUpLeg
		{
			OFFSET 6.797100 -2.508499 -1.318700
			CHANNELS 3 Xrotation Yrotation Zrotation
			JOINT LeftLeg
			{
				OFFSET 0.069008 -29.241863 0.690200
				CHANNELS 3 Xrotation Yrotation Zrotation
				JOINT LeftFoot
				{
					OFFSET -0.069008 -29.568123 -0.266800
					CHANNELS 3 Xrotation Yrotation Zrotation
					JOINT LeftToeBase
					{
						OFFSET 3.145500 -8.631000 16.059900
						CHANNELS 3 Xrotation Yrotation Zrotation
						End Site
						{
							OFFSET 0.000000 18.501587 0.000000
						}
					}
				}
			}
			JOINT Left_ShortSleeve
			{
				OFFSET 0.265923 -10.480953 1.153800
				CHANNELS 3 Xrotation Yrotation Zrotation
				End Site
				{
					OFFSET 1.725763 19.823879 0.000000
				}
			}
		}
		JOINT RightUpLeg
		{
			OFFSET -6.797100 -2.508499 -1.318700
			CHANNELS 3 Xrotation Yrotation Zrotation
			JOINT RightLeg
			{
				OFFSET -0.082453 -29.241932 0.688000
				CHANNELS 3 Xrotation Yrotation Zrotation
				JOINT RightFoot
				{
					OFFSET 0.082453 -29.568058 -0.264600
					CHANNELS 3 Xrotation Yrotation Zrotation
					JOINT RightToeBase
					{
						OFFSET -3.115300 -8.682800 16.113400
						CHANNELS 3 Xrotation Yrotation Zrotation
						End Site
						{
							OFFSET 0.000000 18.567114 0.000000
						}
					}
				}
			}
			JOINT Right_ShortSleeve
			{
				OFFSET -0.265923 -10.480953 1.153800
				CHANNELS 3 Xrotation Yrotation Zrotation
				End Site
				{
					OFFSET -1.725766 19.823910 0.000000
				}
			}
		}
	}
	JOINT Spine
	{
		OFFSET 0.000000 13.368103 0.470500
		CHANNELS 3 Xrotation Yrotation Zrotation
		JOINT Spine1
		{
			OFFSET 0.147000 13.837402 0.538800
			CHANNELS 3 Xrotation Yrotation Zrotation
			JOINT Spine2
			{
				OFFSET 0.168000 16.242897 -1.435500
				CHANNELS 3 Xrotation Yrotation Zrotation
				JOINT Neck
				{
					OFFSET 0.217200 18.631500 -1.679100
					CHANNELS 3 Xrotation Yrotation Zrotation
					JOINT Head
					{
						OFFSET 0.000000 6.599396 1.385900
						CHANNELS 3 Xrotation Yrotation Zrotation
						JOINT Hat
						{
							OFFSET -0.532200 27.220596 -10.096100
							CHANNELS 3 Xrotation Yrotation Zrotation
							End Site
							{
								OFFSET 0.000000 22.029861 0.000000
							}
						}
						JOINT HairD
						{
							OFFSET -10.777400 17.437393 -1.325900
							CHANNELS 3 Xrotation Yrotation Zrotation
							JOINT HairD1
							{
								OFFSET -3.290299 -11.051193 1.062200
								CHANNELS 3 Xrotation Yrotation Zrotation
								End Site
								{
									OFFSET 0.000000 11.579437 0.000000
								}
							}
						}
						JOINT HairB
						{
							OFFSET -10.777400 17.437393 1.467900
							CHANNELS 3 Xrotation Yrotation Zrotation
							JOINT HairB1
							{
								OFFSET -1.561200 -12.956299 3.590200
								CHANNELS 3 Xrotation Yrotation Zrotation
								End Site
								{
									OFFSET 0.000000 13.534866 0.000000
								}
							}
						}
						JOINT HairA
						{
							OFFSET 9.713100 17.437393 1.467900
							CHANNELS 3 Xrotation Yrotation Zrotation
							JOINT HairA1
							{
								OFFSET 1.561200 -12.956299 3.590200
								CHANNELS 3 Xrotation Yrotation Zrotation
								End Site
								{
									OFFSET 0.000000 13.534866 0.000000
								}
							}
						}
						JOINT HairC
						{
							OFFSET 9.713100 17.437393 -1.325900
							CHANNELS 3 Xrotation Yrotation Zrotation
							JOINT HairC1
							{
								OFFSET 3.290300 -11.051193 1.062200
								CHANNELS 3 Xrotation Yrotation Zrotation
								End Site
								{
									OFFSET 0.000000 11.579437 0.000000
								}
							}
						}
					}
				}
				JOINT LeftShoulder
				{
					OFFSET 5.101800 15.108002 -2.763700
					CHANNELS 3 Xrotation Yrotation Zrotation
					JOINT LeftArm
					{
						OFFSET 9.825497 2.506317 -1.597400
						CHANNELS 3 Xrotation Yrotation Zrotation
						JOINT LeftForeArm
						{
							OFFSET 21.966244 0.000000 0.000000
							CHANNELS 3 Xrotation Yrotation Zrotation
							JOINT LeftHand
							{
								OFFSET 33.879036 0.000000 0.000000
								CHANNELS 3 Xrotation Yrotation Zrotation
								JOINT LeftHandThumb1
								{
									OFFSET 6.715286 -2.359680 3.363841
									CHANNELS 3 Xrotation Yrotation Zrotation
									JOINT LeftHandThumb2
									{
										OFFSET 2.507072 -1.447464 1.447461
										CHANNELS 3 Xrotation Yrotation Zrotation
										JOINT LeftHandThumb3
										{
											OFFSET 2.898338 -1.673355 1.673357
											CHANNELS 3 Xrotation Yrotation Zrotation
											End Site
											{
												OFFSET -0.295959 3.727692 -0.131651
											}
										}
									}
								}
								JOINT LeftHandIndex1
								{
									OFFSET 14.190811 -0.254547 3.840278
									CHANNELS 3 Xrotation Yrotation Zrotation
									JOINT LeftHandIndex2
									{
										OFFSET 3.551727 0.000000 -0.000000
										CHANNELS 3 Xrotation Yrotation Zrotation
										JOINT LeftHandIndex3
										{
											OFFSET 2.894196 0.000000 0.000000
											CHANNELS 3 Xrotation Yrotation Zrotation
											End Site
											{
												OFFSET -1.000603 2.690872 0.366626
											}
										}
									}
								}
								JOINT LeftHandMiddle1
								{
									OFFSET 13.776489 0.000000 0.000000
									CHANNELS 3 Xrotation Yrotation Zrotation
									JOINT LeftHandMiddle2
									{
										OFFSET 3.438232 0.000000 0.000000
										CHANNELS 3 Xrotation Yrotation Zrotation
										JOINT LeftHandMiddle3
										{
											OFFSET 3.691551 0.000000 0.000000
											CHANNELS 3 Xrotation Yrotation Zrotation
											End Site
											{
												OFFSET -1.082298 3.499527 0.457670
											}
										}
									}
								}
								JOINT LeftHandRing1
								{
									OFFSET 13.966164 -0.268127 -3.067488
									CHANNELS 3 Xrotation Yrotation Zrotation
									JOINT LeftHandRing2
									{
										OFFSET 3.162567 0.000000 0.000000
										CHANNELS 3 Xrotation Yrotation Zrotation
										JOINT LeftHandRing3
										{
											OFFSET 3.324348 0.000000 0.000000
											CHANNELS 3 Xrotation Yrotation Zrotation
											End Site
											{
												OFFSET -0.861900 3.184998 0.405154
											}
										}
									}
								}
								JOINT LeftHandPinky1
								{
									OFFSET 13.131393 -0.168503 -5.746925
									CHANNELS 3 Xrotation Yrotation Zrotation
									JOINT LeftHandPinky2
									{
										OFFSET 2.849182 0.000000 0.000000
										CHANNELS 3 Xrotation Yrotation Zrotation
										JOINT LeftHandPinky3
										{
											OFFSET 2.805038 0.000000 0.000000
											CHANNELS 3 Xrotation Yrotation Zrotation
											End Site
											{
												OFFSET -0.882500 2.642609 0.325652
											}
										}
									}
								}
							}
							JOINT Left_Sleeve
							{
								OFFSET 6.592125 -0.646545 0.805568
								CHANNELS 3 Xrotation Yrotation Zrotation
								End Site
								{
									OFFSET -0.000179 20.275787 -0.000000
								}
							}
						}
					}
				}
				JOINT RightShoulder
				{
					OFFSET -5.731700 15.108002 -2.763700
					CHANNELS 3 Xrotation Yrotation Zrotation
					JOINT RightArm
					{
						OFFSET -9.825497 2.506317 -1.597400
						CHANNELS 3 Xrotation Yrotation Zrotation
						JOINT RightForeArm
						{
							OFFSET -21.966242 0.000000 0.000000
							CHANNELS 3 Xrotation Yrotation Zrotation
							JOINT RightHand
							{
								OFFSET -33.879032 0.000000 0.000000
								CHANNELS 3 Xrotation Yrotation Zrotation
								JOINT RightHandThumb1
								{
									OFFSET -6.715286 -2.359680 3.363841
									CHANNELS 3 Xrotation Yrotation Zrotation
									JOINT RightHandThumb2
									{
										OFFSET -2.507072 -1.447464 1.447461
										CHANNELS 3 Xrotation Yrotation Zrotation
										JOINT RightHandThumb3
										{
											OFFSET -2.898338 -1.673355 1.673357
											CHANNELS 3 Xrotation Yrotation Zrotation
											End Site
											{
												OFFSET 0.295959 3.727692 -0.131651
											}
										}
									}
								}
								JOINT RightHandIndex1
								{
									OFFSET -14.190811 -0.254547 3.840278
									CHANNELS 3 Xrotation Yrotation Zrotation
									JOINT RightHandIndex2
									{
										OFFSET -3.551727 0.000000 -0.000000
										CHANNELS 3 Xrotation Yrotation Zrotation
										JOINT RightHandIndex3
										{
											OFFSET -2.894196 0.000000 0.000000
											CHANNELS 3 Xrotation Yrotation Zrotation
											End Site
											{
												OFFSET 1.000603 2.690872 0.366626
											}
										}
									}
								}
								JOINT RightHandMiddle1
								{
									OFFSET -13.776489 0.000000 0.000000
									CHANNELS 3 Xrotation Yrotation Zrotation
									JOINT RightHandMiddle2
									{
										OFFSET -3.438232 0.000000 0.000000
										CHANNELS 3 Xrotation Yrotation Zrotation
										JOINT RightHandMiddle3
										{
											OFFSET -3.691551 0.000000 0.000000
											CHANNELS 3 Xrotation Yrotation Zrotation
											End Site
											{
												OFFSET 1.082298 3.499527 0.457670
											}
										}
									}
								}
								JOINT RightHandRing1
								{
									OFFSET -13.966164 -0.268127 -3.067488
									CHANNELS 3 Xrotation Yrotation Zrotation
									JOINT RightHandRing2
									{
										OFFSET -3.162567 0.000000 0.000000
										CHANNELS 3 Xrotation Yrotation Zrotation
										JOINT RightHandRing3
										{
											OFFSET -3.324348 0.000000 0.000000
											CHANNELS 3 Xrotation Yrotation Zrotation
											End Site
											{
												OFFSET 0.861900 3.184998 0.405154
											}
										}
									}
								}
								JOINT RightHandPinky1
								{
									OFFSET -13.131393 -0.168503 -5.746925
									CHANNELS 3 Xrotation Yrotation Zrotation
									JOINT RightHandPinky2
									{
										OFFSET -2.849182 0.000000 0.000000
										CHANNELS 3 Xrotation Yrotation Zrotation
										JOINT RightHandPinky3
										{
											OFFSET -2.805038 0.000000 0.000000
											CHANNELS 3 Xrotation Yrotation Zrotation
											End Site
											{
												OFFSET 0.882500 2.642609 0.325652
											}
										}
									}
								}
							}
							JOINT Right_Sleeve
							{
								OFFSET -6.592125 -0.646545 0.805568
								CHANNELS 3 Xrotation Yrotation Zrotation
								End Site
								{
									OFFSET 0.000179 20.275787 -0.000000
								}
							}
						}
					}
				}
				JOINT Bind_Right_JacketString
				{
					OFFSET -3.534800 11.969597 7.200700
					CHANNELS 3 Xrotation Yrotation Zrotation
					JOINT Bind_Right_JacketString1
					{
						OFFSET -0.319900 -6.102600 2.794100
						CHANNELS 3 Xrotation Yrotation Zrotation
						End Site
						{
							OFFSET 0.000000 6.719452 0.000000
						}
					}
				}
				JOINT Bind_Left_JacketString
				{
					OFFSET 2.904800 11.969597 7.200700
					CHANNELS 3 Xrotation Yrotation Zrotation
					JOINT Bind_Left_JacketString1
					{
						OFFSET 0.364800 -5.904503 3.186800
						CHANNELS 3 Xrotation Yrotation Zrotation
						End Site
						{
							OFFSET 0.000000 6.719513 0.000000
						}
					}
				}
				JOINT HairE
				{
					OFFSET 5.915200 17.612701 -11.592200
					CHANNELS 3 Xrotation Yrotation Zrotation
					JOINT HairE1
					{
						OFFSET 0.289200 -7.171898 -1.284500
						CHANNELS 3 Xrotation Yrotation Zrotation
						End Site
						{
							OFFSET 0.000000 7.291756 0.000000
						}
					}
				}
				JOINT HairF
				{
					OFFSET -0.864800 17.612701 -11.592200
					CHANNELS 3 Xrotation Yrotation Zrotation
					JOINT HairF1
					{
						OFFSET 0.000000 -14.087097 -2.127501
						CHANNELS 3 Xrotation Yrotation Zrotation
						End Site
						{
							OFFSET 0.000000 14.246841 0.000000
						}
					}
				}
				JOINT HairG
				{
					OFFSET -8.087700 17.612701 -11.592200
					CHANNELS 3 Xrotation Yrotation Zrotation
					JOINT HairG1
					{
						OFFSET -0.293600 -6.081398 -0.910100
						CHANNELS 3 Xrotation Yrotation Zrotation
						End Site
						{
							OFFSET 0.000000 6.156120 0.000000
						}
					}
				}
			}
		}
	}
	JOINT Pouch
	{
		OFFSET 0.000000 4.394501 10.847300
		CHANNELS 3 Xrotation Yrotation Zrotation
		End Site
		{
			OFFSET 0.000000 21.880577 0.000000
		}
	}
	JOINT Bag
	{
		OFFSET -13.229000 4.813004 -0.593300
		CHANNELS 3 Xrotation Yrotation Zrotation
		End Site
		{
			OFFSET 0.000000 21.880577 0.000000
		}
	}
	JOINT OccupyGuyFacialAnim_Joint
	{
		OFFSET 1.000000 -70.206398 -1.655000
		CHANNELS 3 Xrotation Yrotation Zrotation
		End Site
		{
			OFFSET 0.000000 21.880577 0.000000
		}
	}
}
MOTION
Frames: 4
Frame Time: 0.033333
-0.133222 62.656914 0.702186 -0.252370 -0.001777 -1.112073 0.000000 -0.000000 0.000000 -34.994116 2.525094 25.916465 50.375452 -5.712981 -8.721345 -15.485480 -7.780270 -8.719005 0.000000 0.000000 -0.000000 0.000001 0.000000 0.000000 -38.299070 -12.923648 -21.710492 51.347129 5.735992 -2.838296 -14.694279 3.443489 11.661700 -0.000000 -0.000000 0.000000 -0.000001 -0.000001 -0.000003 16.586618 0.265162 0.401335 20.119545 0.469852 0.900696 12.592132 0.364575 0.927906 2.981587 -0.915419 0.127353 -21.725500 3.041513 -1.451454 0.000000 0.000000 0.000000 0.000000 0.000000 0.000000 0.000000 0.000000 0.000000 0.000000 0.000000 0.000000 -0.000001 0.000000 0.000000 0.000000 0.000000 0.000000 -0.000001 0.000000 0.000000 0.000000 0.000000 0.000000 0.000000 0.000000 0.000000 20.445942 -17.628645 8.705105 -33.570202 -17.336485 -36.862254 -2.640484 -52.136227 -20.395445 -54.784135 -19.506908 -15.020216 36.774531 8.584282 -16.863131 2.307174 23.048880 15.130711 0.000000 -0.000000 -0.000001 0.652342 9.453947 -24.543697 0.393117 2.026184 -21.957665 -0.000002 0.000001 -0.000003 0.653752 9.453299 -24.543947 0.393121 2.026192 -21.957663 0.000005 0.000002 0.000001 0.647397 9.457727 -24.541028 0.393063 2.026043 -21.955947 -0.000002 -0.000001 -0.000001 0.641858 9.450002 -24.541008 0.384728 2.021083 -21.956371 0.000001 0.000001 -0.000002 0.000002 -0.000000 -0.000001 18.311841 13.497345 -7.979211 -29.297205 10.275800 43.682536 -39.182497 60.008806 40.506239 -15.081129 -0.977418 14.319025 40.076145 0.945840 20.753827 5.156841 -21.099679 -19.108098 0.000002 -0.000001 0.000001 18.327831 0.099096 38.977970 -3.924271 9.265841 32.256268 -0.000003 0.000000 0.000002 -3.490396 -2.451046 34.024283 0.778390 -2.790419 31.036991 0.000006 0.000000 -0.000001 -12.758001 -10.091615 31.800982 -8.974647 -8.729474 30.664162 -0.000000 0.000000 0.000001 -16.765415 -2.967982 36.666327 0.750488 -2.749770 30.591427 -0.000005 0.000001 0.000001 0.000002 -0.000002 0.000000 -0.000002 -0.000000 -0.000000 -0.000000 -0.000000 -0.000000 -0.000002 -0.000000 -0.000000 -0.000002 -0.000000 -0.000000 -0.000002 -0.000000 -0.000000 -0.000000 -0.000000 -0.000000 -0.000002 -0.000000 -0.000000 -0.000002 -0.000000 -0.000000 -0.000002 -0.000000 -0.000000 -0.000000 -0.000000 -0.000000 0.000000 -0.000000 0.000000 0.000000 -0.000000 0.000000 0.000000 -0.000000 0.000000 
0.072315 62.666176 0.697328 -0.097230 0.083971 -1.220159 0.000000 0.000000 -0.000000 -35.265677 2.468374 25.847761 50.571100 -5.819487 -8.815548 -15.578243 -7.810262 -8.431244 -0.000000 -0.000000 0.000000 0.000000 -0.000001 -0.000001 -38.325332 -13.041706 -21.876621 50.994039 5.762627 -2.769486 -14.479017 3.523953 11.830698 -0.000000 0.000000 0.000000 -0.000003 0.000000 -0.000000 16.600618 0.268943 0.327752 20.180359 0.492244 0.756803 12.670232 0.404009 0.787762 2.794780 -0.905159 0.112525 -21.971269 2.816030 -1.000451 -0.000002 0.000000 0.000000 -0.000002 0.000000 0.000000 -0.000002 0.000000 0.000000 -0.000002 0.000000 -0.000000 -0.000004 -0.000000 0.000000 -0.000002 0.000000 -0.000000 -0.000004 -0.000000 0.000000 -0.000002 0.000000 0.000000 -0.000002 0.000000 0.000000 20.385729 -17.596611 8.658092 -33.467602 -18.351906 -36.784015 -2.643805 -52.191610 -20.399642 -54.784141 -19.506911 -15.020216 36.704999 8.546618 -16.824448 2.307168 23.048888 15.130711 0.000004 0.000001 -0.000000 0.654050 9.433550 -24.602543 0.395084 2.031052 -22.013266 -0.000000 0.000001 0.000002 0.654218 9.443367 -24.601182 0.395081 2.031060 -22.013278 0.000003 -0.000001 -0.000001 0.651617 9.466806 -24.596867 0.395019 2.030921 -22.011569 0.000002 0.000003 0.000000 0.646300 9.473130 -24.596092 0.386685 2.025966 -22.011977 -0.000000 -0.000001 0.000001 -0.000000 -0.000002 -0.000001 18.294619 13.523917 -8.028709 -28.840382 10.610493 43.874820 -39.371495 60.141817 40.724265 -15.366181 -1.035991 14.441281 39.886655 1.158116 20.593333 5.143276 -21.106613 -19.077879 -0.000001 0.000001 -0.000001 18.318130 0.092975 38.671319 -3.901333 9.288902 32.113852 0.000001 0.000000 0.000000 -3.484512 -2.460421 34.154986 0.790168 -2.809857 31.277912 0.000000 -0.000001 -0.000003 -12.638563 -10.011032 31.977764 -8.952875 -8.745101 30.907972 0.000001 -0.000001 -0.000002 -16.722318 -2.896756 36.410765 0.747265 -2.744276 30.523914 0.000003 -0.000000 0.000001 0.000002 -0.000001 0.000001 -0.000001 -0.000000 0.000000 0.000001 -0.000000 0.000000 -0.000001 -0.000000 0.000000 -0.000001 -0.000000 0.000000 -0.000001 -0.000000 0.000000 0.000001 -0.000000 0.000000 -0.000001 -0.000000 0.000000 -0.000001 -0.000000 0.000000 -0.000001 -0.000000 0.000000 0.000001 -0.000000 0.000000 0.000000 0.000000 -0.000000 0.000000 0.000000 -0.000000 0.000000 0.000000 -0.000000 
0.252101 62.680687 0.708569 0.005256 0.131246 -1.297110 -0.000000 -0.000000 0.000000 -35.449802 2.488664 25.800191 50.711204 -5.967400 -8.900654 -15.662877 -7.811336 -8.157601 -0.000000 0.000000 -0.000000 0.000000 -0.000000 0.000000 -38.300504 -13.132762 -22.018078 50.672306 5.768128 -2.725201 -14.299765 3.619827 11.992131 0.000000 -0.000000 -0.000000 0.000001 0.000002 -0.000000 16.556420 0.271832 0.273727 20.175238 0.497450 0.645347 12.715249 0.421409 0.677358 2.622145 -0.890040 0.081541 -22.144646 2.670179 -0.778013 -0.000001 -0.000000 0.000000 -0.000001 -0.000000 0.000000 -0.000001 -0.000000 0.000000 -0.000001 -0.000000 0.000000 -0.000001 -0.000000 -0.000000 -0.000001 -0.000000 0.000000 -0.000001 -0.000000 -0.000000 -0.000001 -0.000000 0.000000 -0.000001 -0.000000 0.000000 20.214498 -17.519575 8.501332 -33.124519 -18.781371 -36.561634 -2.660262 -52.466501 -20.420442 -54.784135 -19.506902 -15.020213 36.501716 8.436123 -16.712119 2.307183 23.048905 15.130715 0.000003 0.000001 -0.000002 0.658752 9.373962 -24.774437 0.400864 2.045281 -22.175778 -0.000001 0.000001 -0.000002 0.659480 9.412479 -24.769153 0.400865 2.045292 -22.175761 0.000004 0.000000 -0.000001 0.661762 9.499454 -24.759260 0.400804 2.045145 -22.174050 0.000001 0.000001 -0.000002 0.654371 9.543012 -24.756210 0.392438 2.040215 -22.174503 -0.000000 -0.000000 0.000001 0.000002 0.000000 0.000001 18.194903 13.539813 -7.960732 -28.402223 10.808260 43.917508 -39.731098 60.369597 41.133131 -15.388963 -1.033060 14.662784 39.422319 1.498865 20.309678 5.105313 -21.130894 -19.006612 0.000000 -0.000001 0.000006 18.277666 0.135953 38.520665 -3.882002 9.308224 31.994242 -0.000003 0.000001 0.000000 -3.461591 -2.495668 34.526084 0.824081 -2.864904 31.963178 0.000006 -0.000001 -0.000003 -12.302371 -9.778163 32.478748 -8.891598 -8.789392 31.601281 0.000004 -0.000002 -0.000000 -16.649973 -2.947475 36.293347 0.746764 -2.743425 30.513409 0.000001 -0.000001 0.000000 -0.000002 -0.000001 0.000001 0.000005 -0.000000 -0.000000 0.000002 0.000000 0.000000 0.000005 -0.000000 -0.000000 0.000005 -0.000000 -0.000000 0.000005 -0.000000 -0.000000 0.000002 0.000000 -0.000000 0.000005 -0.000000 -0.000000 0.000005 -0.000000 -0.000000 0.000005 -0.000000 -0.000000 0.000002 0.000000 -0.000000 -0.000000 -0.000000 0.000000 -0.000000 -0.000000 0.000000 -0.000000 -0.000000 0.000000 
0.396898 62.701721 0.734068 0.053432 0.127967 -1.337011 -0.000000 -0.000000 -0.000000 -35.526638 2.557823 25.742317 50.790137 -6.122357 -8.938901 -15.742886 -7.743252 -7.943046 -0.000000 0.000000 0.000000 0.000001 0.000000 -0.000002 -38.225038 -13.179224 -22.115661 50.389529 5.719971 -2.712404 -14.160710 3.749195 12.148659 -0.000000 0.000000 0.000000 0.000001 0.000000 -0.000000 16.462431 0.274769 0.235728 20.115288 0.495379 0.558589 12.736442 0.428472 0.590323 2.429979 -0.870541 0.025299 -22.283135 2.538491 -0.623448 -0.000000 0.000000 -0.000000 -0.000000 0.000000 -0.000000 -0.000000 0.000000 -0.000000 -0.000000 0.000000 -0.000000 -0.000000 0.000000 -0.000000 -0.000000 0.000000 -0.000000 -0.000000 0.000000 -0.000000 -0.000000 0.000000 -0.000000 -0.000000 0.000000 -0.000000 19.936506 -17.400914 8.241708 -32.529531 -19.023050 -36.262137 -2.683044 -52.838900 -20.449100 -54.784138 -19.506906 -15.020218 36.172689 8.256195 -16.532388 2.307170 23.048878 15.130700 0.000001 -0.000000 0.000002 0.665502 9.277516 -25.052350 0.410295 2.068275 -22.438655 -0.000000 -0.000000 -0.000004 0.667542 9.362451 -25.040780 0.410306 2.068271 -22.438657 0.000003 0.000000 0.000001 0.673565 9.554443 -25.021228 0.410226 2.068130 -22.436956 -0.000001 -0.000000 -0.000000 0.668183 9.655986 -25.015409 0.401867 2.063236 -22.437371 -0.000002 -0.000002 0.000001 0.000002 -0.000002 -0.000001 18.021913 13.547495 -7.799234 -27.842988 10.965634 43.831090 -40.183615 60.641862 41.644671 -15.097851 -1.010956 15.035099 38.721804 1.905864 19.976642 5.084681 -21.231344 -18.868396 -0.000000 -0.000001 0.000002 18.222183 0.198617 38.366573 -3.869986 9.320185 31.920056 -0.000002 -0.000001 0.000000 -3.425577 -2.549899 35.107405 0.878537 -2.950277 33.036437 0.000003 0.000000 -0.000002 -11.786316 -9.402826 33.258233 -8.797586 -8.858286 32.686922 0.000004 -0.000001 -0.000003 -16.537063 -3.068156 36.184727 0.748170 -2.745821 30.542871 0.000005 -0.000000 0.000001 0.000002 0.000001 0.000000 -0.000002 0.000000 0.000000 -0.000003 -0.000000 0.000000 -0.000002 0.000000 0.000000 -0.000002 0.000000 0.000000 -0.000002 0.000000 0.000000 -0.000003 -0.000000 0.000000 -0.000002 0.000000 0.000000 -0.000002 0.000000 0.000000 -0.000002 0.000000 0.000000 -0.000003 -0.000000 0.000000 -0.000000 -0.000000 -0.000000 -0.000000 -0.000000 -0.000000 -0.000000 -0.000000 -0.000000 
